<mxfile host="app.diagrams.net" agent="Mozilla/5.0 (Macintosh; Intel Mac OS X 10.15; rv:142.0) Gecko/20100101 Firefox/142.0" version="28.2.3">
  <diagram name="Seite-1" id="ZD0gfPjtryFefZRdYXQp">
    <mxGraphModel dx="2223" dy="817" grid="1" gridSize="10" guides="1" tooltips="1" connect="1" arrows="0" fold="1" page="1" pageScale="1" pageWidth="827" pageHeight="1169" math="1" shadow="0">
      <root>
        <mxCell id="0" />
        <mxCell id="1" parent="0" />
        <mxCell id="RQd_vgMUvT6Io3bDNMp--1" value="" style="rounded=1;whiteSpace=wrap;html=1;" parent="1" vertex="1">
          <mxGeometry x="-10" y="270" width="250" height="100" as="geometry" />
        </mxCell>
        <mxCell id="RQd_vgMUvT6Io3bDNMp--15" value="" style="group" parent="1" vertex="1" connectable="0">
          <mxGeometry y="280" width="138" height="83.69999999999999" as="geometry" />
        </mxCell>
        <mxCell id="RQd_vgMUvT6Io3bDNMp--2" value="Actor" style="shape=umlActor;verticalLabelPosition=bottom;verticalAlign=top;html=1;outlineConnect=0;" parent="RQd_vgMUvT6Io3bDNMp--15" vertex="1">
          <mxGeometry x="60" width="30" height="60" as="geometry" />
        </mxCell>
        <mxCell id="RQd_vgMUvT6Io3bDNMp--10" value="" style="sketch=0;pointerEvents=1;shadow=0;dashed=0;html=1;strokeColor=none;fillColor=#434445;aspect=fixed;labelPosition=center;verticalLabelPosition=bottom;verticalAlign=top;align=center;outlineConnect=0;shape=mxgraph.vvd.document;" parent="RQd_vgMUvT6Io3bDNMp--15" vertex="1">
          <mxGeometry width="46.5" height="63.7" as="geometry" />
        </mxCell>
        <mxCell id="RQd_vgMUvT6Io3bDNMp--11" value="" style="rounded=0;whiteSpace=wrap;html=1;strokeColor=none;" parent="RQd_vgMUvT6Io3bDNMp--15" vertex="1">
          <mxGeometry x="46.5" y="63.69999999999999" width="60" height="20" as="geometry" />
        </mxCell>
        <mxCell id="RQd_vgMUvT6Io3bDNMp--24" value="" style="shape=image;html=1;verticalAlign=top;verticalLabelPosition=bottom;labelBackgroundColor=#ffffff;imageAspect=0;aspect=fixed;image=https://cdn2.iconfinder.com/data/icons/css-vol-2/24/math-equal-128.png" parent="RQd_vgMUvT6Io3bDNMp--15" vertex="1">
          <mxGeometry x="90" y="12" width="48" height="48" as="geometry" />
        </mxCell>
        <mxCell id="RQd_vgMUvT6Io3bDNMp--23" value="" style="group" parent="1" vertex="1" connectable="0">
          <mxGeometry x="120" y="280" width="106.5" height="83.69999999999999" as="geometry" />
        </mxCell>
        <mxCell id="RQd_vgMUvT6Io3bDNMp--17" value="Actor" style="shape=umlActor;verticalLabelPosition=bottom;verticalAlign=top;html=1;outlineConnect=0;" parent="RQd_vgMUvT6Io3bDNMp--23" vertex="1">
          <mxGeometry x="13.5" width="30" height="60" as="geometry" />
        </mxCell>
        <mxCell id="RQd_vgMUvT6Io3bDNMp--18" value="" style="sketch=0;pointerEvents=1;shadow=0;dashed=0;html=1;strokeColor=none;fillColor=#434445;aspect=fixed;labelPosition=center;verticalLabelPosition=bottom;verticalAlign=top;align=center;outlineConnect=0;shape=mxgraph.vvd.document;" parent="RQd_vgMUvT6Io3bDNMp--23" vertex="1">
          <mxGeometry x="60" width="46.5" height="63.7" as="geometry" />
        </mxCell>
        <mxCell id="RQd_vgMUvT6Io3bDNMp--19" value="" style="rounded=0;whiteSpace=wrap;html=1;strokeColor=none;" parent="RQd_vgMUvT6Io3bDNMp--23" vertex="1">
          <mxGeometry y="63.69999999999999" width="60" height="20" as="geometry" />
        </mxCell>
        <mxCell id="RQd_vgMUvT6Io3bDNMp--25" value="" style="shape=image;html=1;verticalAlign=top;verticalLabelPosition=bottom;labelBackgroundColor=#ffffff;imageAspect=0;aspect=fixed;image=https://cdn2.iconfinder.com/data/icons/boxicons-regular-vol-3/24/bx-question-mark-128.png" parent="RQd_vgMUvT6Io3bDNMp--23" vertex="1">
          <mxGeometry x="-20" width="28" height="28" as="geometry" />
        </mxCell>
        <mxCell id="RQd_vgMUvT6Io3bDNMp--26" value="" style="rounded=1;whiteSpace=wrap;html=1;" parent="1" vertex="1">
          <mxGeometry x="-10" y="400" width="250" height="100" as="geometry" />
        </mxCell>
        <mxCell id="RQd_vgMUvT6Io3bDNMp--72" value="1" style="ellipse;whiteSpace=wrap;html=1;aspect=fixed;" parent="1" vertex="1">
          <mxGeometry x="76" y="375" width="20" height="20" as="geometry" />
        </mxCell>
        <mxCell id="RQd_vgMUvT6Io3bDNMp--73" value="" style="rounded=1;whiteSpace=wrap;html=1;" parent="1" vertex="1">
          <mxGeometry x="289" y="340" width="361" height="130" as="geometry" />
        </mxCell>
        <mxCell id="RQd_vgMUvT6Io3bDNMp--74" value="&lt;font style=&quot;font-size: 8px;&quot;&gt;$$&lt;br&gt;\begin{bmatrix} 0.12 \\ 0.34 \\ 0.05 \\ 0.41 \\ 0.22 \\ 0.48 \\ 0.10 \end{bmatrix} \quad&lt;br&gt;\begin{bmatrix} 0.33 \\ 0.27 \\ 0.15 \\ 0.49 \\ 0.05 \\ 0.38 \\ 0.11 \end{bmatrix} \quad&lt;br&gt;\begin{bmatrix} 0.20 \\ 0.44 \\ 0.09 \\ 0.36 \\ 0.31 \\ 0.12 \\ 0.47 \end{bmatrix} \quad&lt;br&gt;\begin{bmatrix} 0.28 \\ 0.14 \\ 0.41 \\ 0.23 \\ 0.19 \\ 0.39 \\ 0.05 \end{bmatrix}&lt;br&gt;$$&lt;br&gt;&lt;br&gt;&lt;/font&gt;" style="text;html=1;align=center;verticalAlign=middle;resizable=0;points=[];autosize=1;strokeColor=none;fillColor=none;" parent="1" vertex="1">
          <mxGeometry x="216.3" y="356" width="310" height="110" as="geometry" />
        </mxCell>
        <mxCell id="RQd_vgMUvT6Io3bDNMp--75" value="&lt;font style=&quot;font-size: 8px;&quot;&gt;$$&lt;br&gt;\begin{bmatrix} 0.05 \\ 0.22 \\ 0.41 \\ 0.33 \\ 0.12 \\ 0.48 \\ 0.19 \end{bmatrix} \quad&lt;br&gt;\begin{bmatrix} 0.30 \\ 0.14 \\ 0.27 \\ 0.05 \\ 0.44 \\ 0.38 \\ 0.11 \end{bmatrix} \quad&lt;br&gt;\begin{bmatrix} 0.21 \\ 0.36 \\ 0.09 \\ 0.20 \\ 0.31 \\ 0.12 \\ 0.47 \end{bmatrix} \quad&lt;br&gt;\begin{bmatrix} 0.28 \\ 0.14 \\ 0.41 \\ 0.23 \\ 0.19 \\ 0.39 \\ 0.05 \end{bmatrix}&lt;br&gt;$$&lt;br&gt;&lt;br&gt;&lt;/font&gt;" style="text;html=1;align=center;verticalAlign=middle;resizable=0;points=[];autosize=1;strokeColor=none;fillColor=none;" parent="1" vertex="1">
          <mxGeometry x="414" y="356" width="310" height="110" as="geometry" />
        </mxCell>
        <mxCell id="RQd_vgMUvT6Io3bDNMp--78" value="" style="shape=flexArrow;endArrow=classic;html=1;rounded=0;width=12.121212121212121;endSize=5.8121212121212125;fillColor=#869098;strokeColor=#23445d;shadow=0;" parent="1" edge="1">
          <mxGeometry width="50" height="50" relative="1" as="geometry">
            <mxPoint x="226.5" y="430" as="sourcePoint" />
            <mxPoint x="296.5" y="430" as="targetPoint" />
            <Array as="points">
              <mxPoint x="265.11" y="430" />
            </Array>
          </mxGeometry>
        </mxCell>
        <mxCell id="RQd_vgMUvT6Io3bDNMp--79" value="2" style="ellipse;whiteSpace=wrap;html=1;aspect=fixed;" parent="1" vertex="1">
          <mxGeometry x="250" y="400" width="20" height="20" as="geometry" />
        </mxCell>
        <mxCell id="RQd_vgMUvT6Io3bDNMp--80" value="" style="rounded=1;whiteSpace=wrap;html=1;" parent="1" vertex="1">
          <mxGeometry x="690" y="356" width="250" height="100" as="geometry" />
        </mxCell>
        <mxCell id="RQd_vgMUvT6Io3bDNMp--96" value="" style="shape=flexArrow;endArrow=classic;html=1;rounded=0;width=12.121212121212121;endSize=5.8121212121212125;fillColor=#869098;strokeColor=#23445d;shadow=0;" parent="1" edge="1">
          <mxGeometry width="50" height="50" relative="1" as="geometry">
            <mxPoint x="642" y="450" as="sourcePoint" />
            <mxPoint x="712" y="450" as="targetPoint" />
            <Array as="points">
              <mxPoint x="680.61" y="450" />
            </Array>
          </mxGeometry>
        </mxCell>
        <mxCell id="RQd_vgMUvT6Io3bDNMp--97" value="3" style="ellipse;whiteSpace=wrap;html=1;aspect=fixed;" parent="1" vertex="1">
          <mxGeometry x="663.5" y="420" width="20" height="20" as="geometry" />
        </mxCell>
        <mxCell id="RQd_vgMUvT6Io3bDNMp--98" value="" style="shape=flexArrow;endArrow=classic;html=1;rounded=0;width=12.121212121212121;endSize=5.8121212121212125;fillColor=#869098;strokeColor=#23445d;shadow=0;" parent="1" edge="1">
          <mxGeometry width="50" height="50" relative="1" as="geometry">
            <mxPoint x="700" y="366" as="sourcePoint" />
            <mxPoint x="644" y="366.09000000000003" as="targetPoint" />
            <Array as="points">
              <mxPoint x="692.61" y="366.09000000000003" />
            </Array>
          </mxGeometry>
        </mxCell>
        <mxCell id="RQd_vgMUvT6Io3bDNMp--99" value="4" style="ellipse;whiteSpace=wrap;html=1;aspect=fixed;" parent="1" vertex="1">
          <mxGeometry x="669" y="337.00000000000006" width="20" height="20" as="geometry" />
        </mxCell>
        <mxCell id="RQd_vgMUvT6Io3bDNMp--100" value="" style="endArrow=none;html=1;rounded=0;fillColor=#1ba1e2;strokeColor=#006EAF;strokeWidth=2;" parent="1" edge="1">
          <mxGeometry width="50" height="50" relative="1" as="geometry">
            <mxPoint x="294.5" y="357" as="sourcePoint" />
            <mxPoint x="644.5" y="357" as="targetPoint" />
          </mxGeometry>
        </mxCell>
        <mxCell id="RQd_vgMUvT6Io3bDNMp--101" value="" style="endArrow=none;html=1;rounded=0;fillColor=#1ba1e2;strokeColor=#006EAF;strokeWidth=2;" parent="1" edge="1">
          <mxGeometry width="50" height="50" relative="1" as="geometry">
            <mxPoint x="294.5" y="371" as="sourcePoint" />
            <mxPoint x="644.5" y="371" as="targetPoint" />
          </mxGeometry>
        </mxCell>
        <mxCell id="RQd_vgMUvT6Io3bDNMp--102" value="" style="endArrow=none;html=1;rounded=0;fillColor=#1ba1e2;strokeColor=#006EAF;strokeWidth=2;" parent="1" edge="1">
          <mxGeometry width="50" height="50" relative="1" as="geometry">
            <mxPoint x="294.5" y="422.7" as="sourcePoint" />
            <mxPoint x="644.5" y="422.7" as="targetPoint" />
          </mxGeometry>
        </mxCell>
        <mxCell id="RQd_vgMUvT6Io3bDNMp--103" value="" style="sketch=0;pointerEvents=1;shadow=0;dashed=0;html=1;strokeColor=none;fillColor=#434445;aspect=fixed;labelPosition=center;verticalLabelPosition=bottom;verticalAlign=top;align=center;outlineConnect=0;shape=mxgraph.vvd.document;" parent="1" vertex="1">
          <mxGeometry y="436" width="14.6" height="20" as="geometry" />
        </mxCell>
        <mxCell id="RQd_vgMUvT6Io3bDNMp--104" value="" style="sketch=0;pointerEvents=1;shadow=0;dashed=0;html=1;strokeColor=none;fillColor=#434445;aspect=fixed;labelPosition=center;verticalLabelPosition=bottom;verticalAlign=top;align=center;outlineConnect=0;shape=mxgraph.vvd.document;" parent="1" vertex="1">
          <mxGeometry x="20" y="436" width="14.6" height="20" as="geometry" />
        </mxCell>
        <mxCell id="RQd_vgMUvT6Io3bDNMp--105" value="" style="group" parent="1" vertex="1" connectable="0">
          <mxGeometry x="57" y="410" width="159.3" height="96" as="geometry" />
        </mxCell>
        <mxCell id="RQd_vgMUvT6Io3bDNMp--42" value="" style="group" parent="RQd_vgMUvT6Io3bDNMp--105" vertex="1" connectable="0">
          <mxGeometry width="76.3" height="96" as="geometry" />
        </mxCell>
        <mxCell id="RQd_vgMUvT6Io3bDNMp--30" value="" style="sketch=0;pointerEvents=1;shadow=0;dashed=0;html=1;strokeColor=none;fillColor=#434445;aspect=fixed;labelPosition=center;verticalLabelPosition=bottom;verticalAlign=top;align=center;outlineConnect=0;shape=mxgraph.vvd.document;" parent="RQd_vgMUvT6Io3bDNMp--42" vertex="1">
          <mxGeometry width="14.6" height="20" as="geometry" />
        </mxCell>
        <mxCell id="RQd_vgMUvT6Io3bDNMp--31" value="" style="sketch=0;pointerEvents=1;shadow=0;dashed=0;html=1;strokeColor=none;fillColor=#434445;aspect=fixed;labelPosition=center;verticalLabelPosition=bottom;verticalAlign=top;align=center;outlineConnect=0;shape=mxgraph.vvd.document;" parent="RQd_vgMUvT6Io3bDNMp--42" vertex="1">
          <mxGeometry x="20" width="14.6" height="20" as="geometry" />
        </mxCell>
        <mxCell id="RQd_vgMUvT6Io3bDNMp--32" value="" style="sketch=0;pointerEvents=1;shadow=0;dashed=0;html=1;strokeColor=none;fillColor=#434445;aspect=fixed;labelPosition=center;verticalLabelPosition=bottom;verticalAlign=top;align=center;outlineConnect=0;shape=mxgraph.vvd.document;" parent="RQd_vgMUvT6Io3bDNMp--42" vertex="1">
          <mxGeometry x="40" width="14.6" height="20" as="geometry" />
        </mxCell>
        <mxCell id="RQd_vgMUvT6Io3bDNMp--33" value="" style="sketch=0;pointerEvents=1;shadow=0;dashed=0;html=1;strokeColor=none;fillColor=#434445;aspect=fixed;labelPosition=center;verticalLabelPosition=bottom;verticalAlign=top;align=center;outlineConnect=0;shape=mxgraph.vvd.document;" parent="RQd_vgMUvT6Io3bDNMp--42" vertex="1">
          <mxGeometry x="61.7" width="14.6" height="20" as="geometry" />
        </mxCell>
        <mxCell id="RQd_vgMUvT6Io3bDNMp--34" value="" style="sketch=0;pointerEvents=1;shadow=0;dashed=0;html=1;strokeColor=none;fillColor=#434445;aspect=fixed;labelPosition=center;verticalLabelPosition=bottom;verticalAlign=top;align=center;outlineConnect=0;shape=mxgraph.vvd.document;" parent="RQd_vgMUvT6Io3bDNMp--42" vertex="1">
          <mxGeometry y="23" width="14.6" height="20" as="geometry" />
        </mxCell>
        <mxCell id="RQd_vgMUvT6Io3bDNMp--35" value="" style="sketch=0;pointerEvents=1;shadow=0;dashed=0;html=1;strokeColor=none;fillColor=#434445;aspect=fixed;labelPosition=center;verticalLabelPosition=bottom;verticalAlign=top;align=center;outlineConnect=0;shape=mxgraph.vvd.document;" parent="RQd_vgMUvT6Io3bDNMp--42" vertex="1">
          <mxGeometry x="20" y="23" width="14.6" height="20" as="geometry" />
        </mxCell>
        <mxCell id="RQd_vgMUvT6Io3bDNMp--36" value="" style="sketch=0;pointerEvents=1;shadow=0;dashed=0;html=1;strokeColor=none;fillColor=#434445;aspect=fixed;labelPosition=center;verticalLabelPosition=bottom;verticalAlign=top;align=center;outlineConnect=0;shape=mxgraph.vvd.document;" parent="RQd_vgMUvT6Io3bDNMp--42" vertex="1">
          <mxGeometry x="40" y="23" width="14.6" height="20" as="geometry" />
        </mxCell>
        <mxCell id="RQd_vgMUvT6Io3bDNMp--37" value="" style="sketch=0;pointerEvents=1;shadow=0;dashed=0;html=1;strokeColor=none;fillColor=#434445;aspect=fixed;labelPosition=center;verticalLabelPosition=bottom;verticalAlign=top;align=center;outlineConnect=0;shape=mxgraph.vvd.document;" parent="RQd_vgMUvT6Io3bDNMp--42" vertex="1">
          <mxGeometry x="61.7" y="23" width="14.6" height="20" as="geometry" />
        </mxCell>
        <mxCell id="RQd_vgMUvT6Io3bDNMp--38" value="" style="sketch=0;pointerEvents=1;shadow=0;dashed=0;html=1;strokeColor=none;fillColor=#434445;aspect=fixed;labelPosition=center;verticalLabelPosition=bottom;verticalAlign=top;align=center;outlineConnect=0;shape=mxgraph.vvd.document;" parent="RQd_vgMUvT6Io3bDNMp--42" vertex="1">
          <mxGeometry y="46" width="14.6" height="20" as="geometry" />
        </mxCell>
        <mxCell id="RQd_vgMUvT6Io3bDNMp--39" value="" style="sketch=0;pointerEvents=1;shadow=0;dashed=0;html=1;strokeColor=none;fillColor=#434445;aspect=fixed;labelPosition=center;verticalLabelPosition=bottom;verticalAlign=top;align=center;outlineConnect=0;shape=mxgraph.vvd.document;" parent="RQd_vgMUvT6Io3bDNMp--42" vertex="1">
          <mxGeometry x="20" y="46" width="14.6" height="20" as="geometry" />
        </mxCell>
        <mxCell id="RQd_vgMUvT6Io3bDNMp--40" value="" style="sketch=0;pointerEvents=1;shadow=0;dashed=0;html=1;strokeColor=none;fillColor=#434445;aspect=fixed;labelPosition=center;verticalLabelPosition=bottom;verticalAlign=top;align=center;outlineConnect=0;shape=mxgraph.vvd.document;" parent="RQd_vgMUvT6Io3bDNMp--42" vertex="1">
          <mxGeometry x="40" y="46" width="14.6" height="20" as="geometry" />
        </mxCell>
        <mxCell id="RQd_vgMUvT6Io3bDNMp--41" value="" style="sketch=0;pointerEvents=1;shadow=0;dashed=0;html=1;strokeColor=none;fillColor=#434445;aspect=fixed;labelPosition=center;verticalLabelPosition=bottom;verticalAlign=top;align=center;outlineConnect=0;shape=mxgraph.vvd.document;" parent="RQd_vgMUvT6Io3bDNMp--42" vertex="1">
          <mxGeometry x="61.69999999999999" y="46" width="14.6" height="20" as="geometry" />
        </mxCell>
        <mxCell id="RQd_vgMUvT6Io3bDNMp--43" value="" style="group" parent="RQd_vgMUvT6Io3bDNMp--105" vertex="1" connectable="0">
          <mxGeometry x="83" width="76.3" height="66" as="geometry" />
        </mxCell>
        <mxCell id="RQd_vgMUvT6Io3bDNMp--44" value="" style="sketch=0;pointerEvents=1;shadow=0;dashed=0;html=1;strokeColor=none;fillColor=#434445;aspect=fixed;labelPosition=center;verticalLabelPosition=bottom;verticalAlign=top;align=center;outlineConnect=0;shape=mxgraph.vvd.document;" parent="RQd_vgMUvT6Io3bDNMp--43" vertex="1">
          <mxGeometry width="14.6" height="20" as="geometry" />
        </mxCell>
        <mxCell id="RQd_vgMUvT6Io3bDNMp--45" value="" style="sketch=0;pointerEvents=1;shadow=0;dashed=0;html=1;strokeColor=none;fillColor=#434445;aspect=fixed;labelPosition=center;verticalLabelPosition=bottom;verticalAlign=top;align=center;outlineConnect=0;shape=mxgraph.vvd.document;" parent="RQd_vgMUvT6Io3bDNMp--43" vertex="1">
          <mxGeometry x="20" width="14.6" height="20" as="geometry" />
        </mxCell>
        <mxCell id="RQd_vgMUvT6Io3bDNMp--46" value="" style="sketch=0;pointerEvents=1;shadow=0;dashed=0;html=1;strokeColor=none;fillColor=#434445;aspect=fixed;labelPosition=center;verticalLabelPosition=bottom;verticalAlign=top;align=center;outlineConnect=0;shape=mxgraph.vvd.document;" parent="RQd_vgMUvT6Io3bDNMp--43" vertex="1">
          <mxGeometry x="40" width="14.6" height="20" as="geometry" />
        </mxCell>
        <mxCell id="RQd_vgMUvT6Io3bDNMp--47" value="" style="sketch=0;pointerEvents=1;shadow=0;dashed=0;html=1;strokeColor=none;fillColor=#434445;aspect=fixed;labelPosition=center;verticalLabelPosition=bottom;verticalAlign=top;align=center;outlineConnect=0;shape=mxgraph.vvd.document;" parent="RQd_vgMUvT6Io3bDNMp--43" vertex="1">
          <mxGeometry x="61.7" width="14.6" height="20" as="geometry" />
        </mxCell>
        <mxCell id="RQd_vgMUvT6Io3bDNMp--48" value="" style="sketch=0;pointerEvents=1;shadow=0;dashed=0;html=1;strokeColor=none;fillColor=#434445;aspect=fixed;labelPosition=center;verticalLabelPosition=bottom;verticalAlign=top;align=center;outlineConnect=0;shape=mxgraph.vvd.document;" parent="RQd_vgMUvT6Io3bDNMp--43" vertex="1">
          <mxGeometry y="23" width="14.6" height="20" as="geometry" />
        </mxCell>
        <mxCell id="RQd_vgMUvT6Io3bDNMp--49" value="" style="sketch=0;pointerEvents=1;shadow=0;dashed=0;html=1;strokeColor=none;fillColor=#434445;aspect=fixed;labelPosition=center;verticalLabelPosition=bottom;verticalAlign=top;align=center;outlineConnect=0;shape=mxgraph.vvd.document;" parent="RQd_vgMUvT6Io3bDNMp--43" vertex="1">
          <mxGeometry x="20" y="23" width="14.6" height="20" as="geometry" />
        </mxCell>
        <mxCell id="RQd_vgMUvT6Io3bDNMp--50" value="" style="sketch=0;pointerEvents=1;shadow=0;dashed=0;html=1;strokeColor=none;fillColor=#434445;aspect=fixed;labelPosition=center;verticalLabelPosition=bottom;verticalAlign=top;align=center;outlineConnect=0;shape=mxgraph.vvd.document;" parent="RQd_vgMUvT6Io3bDNMp--43" vertex="1">
          <mxGeometry x="40" y="23" width="14.6" height="20" as="geometry" />
        </mxCell>
        <mxCell id="RQd_vgMUvT6Io3bDNMp--51" value="" style="sketch=0;pointerEvents=1;shadow=0;dashed=0;html=1;strokeColor=none;fillColor=#434445;aspect=fixed;labelPosition=center;verticalLabelPosition=bottom;verticalAlign=top;align=center;outlineConnect=0;shape=mxgraph.vvd.document;" parent="RQd_vgMUvT6Io3bDNMp--43" vertex="1">
          <mxGeometry x="61.7" y="23" width="14.6" height="20" as="geometry" />
        </mxCell>
        <mxCell id="RQd_vgMUvT6Io3bDNMp--52" value="" style="sketch=0;pointerEvents=1;shadow=0;dashed=0;html=1;strokeColor=none;fillColor=#434445;aspect=fixed;labelPosition=center;verticalLabelPosition=bottom;verticalAlign=top;align=center;outlineConnect=0;shape=mxgraph.vvd.document;" parent="RQd_vgMUvT6Io3bDNMp--43" vertex="1">
          <mxGeometry y="46" width="14.6" height="20" as="geometry" />
        </mxCell>
        <mxCell id="RQd_vgMUvT6Io3bDNMp--53" value="" style="sketch=0;pointerEvents=1;shadow=0;dashed=0;html=1;strokeColor=none;fillColor=#434445;aspect=fixed;labelPosition=center;verticalLabelPosition=bottom;verticalAlign=top;align=center;outlineConnect=0;shape=mxgraph.vvd.document;" parent="RQd_vgMUvT6Io3bDNMp--43" vertex="1">
          <mxGeometry x="20" y="46" width="14.6" height="20" as="geometry" />
        </mxCell>
        <mxCell id="RQd_vgMUvT6Io3bDNMp--54" value="" style="sketch=0;pointerEvents=1;shadow=0;dashed=0;html=1;strokeColor=none;fillColor=#434445;aspect=fixed;labelPosition=center;verticalLabelPosition=bottom;verticalAlign=top;align=center;outlineConnect=0;shape=mxgraph.vvd.document;" parent="RQd_vgMUvT6Io3bDNMp--43" vertex="1">
          <mxGeometry x="40" y="46" width="14.6" height="20" as="geometry" />
        </mxCell>
        <mxCell id="RQd_vgMUvT6Io3bDNMp--55" value="" style="sketch=0;pointerEvents=1;shadow=0;dashed=0;html=1;strokeColor=none;fillColor=#434445;aspect=fixed;labelPosition=center;verticalLabelPosition=bottom;verticalAlign=top;align=center;outlineConnect=0;shape=mxgraph.vvd.document;" parent="RQd_vgMUvT6Io3bDNMp--43" vertex="1">
          <mxGeometry x="61.69999999999999" y="46" width="14.6" height="20" as="geometry" />
        </mxCell>
        <mxCell id="RQd_vgMUvT6Io3bDNMp--106" value="" style="shape=flexArrow;endArrow=classic;html=1;rounded=0;width=12.121212121212121;endSize=5.8121212121212125;fillColor=#869098;strokeColor=#23445d;shadow=0;" parent="1" edge="1">
          <mxGeometry width="50" height="50" relative="1" as="geometry">
            <mxPoint x="110.30000000000001" y="353" as="sourcePoint" />
            <mxPoint x="110" y="423" as="targetPoint" />
          </mxGeometry>
        </mxCell>
        <mxCell id="RQd_vgMUvT6Io3bDNMp--107" value="&lt;font style=&quot;font-size: 18px;&quot;&gt;&lt;b&gt;...&lt;/b&gt;&lt;/font&gt;" style="text;html=1;align=center;verticalAlign=middle;resizable=0;points=[];autosize=1;strokeColor=none;fillColor=none;" parent="1" vertex="1">
          <mxGeometry x="449.5" y="378" width="40" height="40" as="geometry" />
        </mxCell>
        <mxCell id="RQd_vgMUvT6Io3bDNMp--110" value="" style="shape=image;verticalLabelPosition=bottom;labelBackgroundColor=default;verticalAlign=top;aspect=fixed;imageAspect=0;image=data:image/png,iVBORw0KGgoAAAANSUhEUgAAAYgAAAAeCAYAAAA2C4nMAAAYKklEQVR4Xu3cA5QkWxIG4LVt76xtu9e2PWvbnrVtz9q2Z23bs9Zb2xvfnIq30fdlVmV3Nap7Ms6J01WVmTfvvRn8I7IPfrB+OlYcelbwHYJ/NuW88dC4A+MObI0dOGZM89lbUKdPHXO+Z/Bdgv84ZavvODn+wq3xOBZ/lgfvmeIx4vePBz8i+EWLv4xxhuMOjDswYwfo9MeCHxW8e+BunSzOO2nwEYLPObEJ7xl47Vqf9sQY8CLBFwv+Xc/gR4nfvxj8guCHrvUEtsB4S5M5njH+CvDtwb/nmXeXgzhUDPjh4B8EX2eewcdrxx0Yd2DZDhw7vl0m+BfB797AvTlk3Ov9wZCAlei0SHxnmect4/NzN3De9VaHiS+fDP5p8OWnzOGscezTwdcKfsMmzXUzbnuauOk3yo0PiM/kbS7qchC3jREfHXyq4J/PNfp48bgD4w7UHZCN3yj4W8EUeqPoNnGjxwSDalYDF/8mrjt68BmCv7ZRk+64zwXit48EXyP4dVPmAUa7WvBJgv+6ifPdjFuD4Z4Q/Mbgq847gdZBHC4G3Bv8zOAHzzv4eP24A+MOLNsBKf/Ngu8U/JoN2hs6/f3g5wQ/aBX3PEVc853gNYlIV3H/9pLPxQ+HDj7TlLFOH8e+Gnz34MevwT230hAvi8leL1jt+GnzTrx1EHeOAWF9cMcfzjv4eP24A+MObPoOcEZPCt4RDDZeKYGVROQcGthms+nGMYHdwRcN3jNlMu+LY2ooHNx/N3vSG3j/zPbOEvf80rz3bR2EItbRgnngkcYdGHdg6+/AR2MJCtSnW+VSnh/X3TT4dsHPWOUYa3mZTizZjLmYUx/dLQ48Lvg8wZ9aywks8FiyKk7hT8FHXot5VgdxpBhQd4DC1C0GDi59NSnFkWntZxwODFNn1H8mY584/h4v+PPB/5pyP8UpVfnvBv++47wzx29Szs+WY4eIz/BKxTnX/agc4wAVsn4Z/PXgIdGF7giYsQ6Jf8zYG3OB9eoioJy5NvittbvnSNtrB44ay2GAvxn8256lkTnHuzBxXULnDgaL/Kpcf8L4rBaIPjSRnzxMJ+gUmfxDzz1Tp3fH8ZsP3HLyS6fUSeg0/Tl58DwRqcYX81W/mKU/psku6ZpSbO4iOqQ7x5h9dK44wDFoj33swLVv9dPASk8JflvwFcpi2MOzByvw48FUHcSl4qp3Bd81GMw0jQj704PPEfztYAbxmsHSPoKlhpEkxb1PMMNMQC4XvDtYAYmnI8TnD25b16SHooTzTa5zvgKMwotuhicHXzfYXI39jskczht/pcScw9+DwWW3Cn5VsLU9IJjD4NwYbF0dXwjuIpusYL8j2MZyFNJsaTdH+t7motPG9w8EUywPxZquFHyT4BsEc3CHDb5QsLWPtLV3QDRLRj1jgQ6DLSgQYGXgQX7hwmTtRBPZeXFZNnnQOipgOm7w9YPfEqxeoK+fztAvf8n+EYMZgUsGC4oo/kuDFaIz+MrhnaNbaggWLwCiUxcM/vLknr6rRZJVTrAdvyyj9yNDbb4CPetbClbTSKL7bw3WHPPKYHqji9LvCs1dnUg6qTg8Qdive+5M/83b3no++wPZq6sE3yNY9oQU9B852afjx182anDhvjoIQsTTMoo8UB+JzAmdh3zFYLWKpcmDECm8JFinBiIQBFv0TNg5CkbzecEKdq8Pvngw5/LackPRWLbaXiI+i8r8Jn1yD9cx+pSSgtgQTBEprUIgg05IMiLj0DgZToJQES7HFL04upak1dLrNwdbD+Mupc3CjxRWt0DSCeKDVkLz+mCwFE+W8rfJ79l5QcnhqNVIdNx+/GnBd0DUL8L9zOSZe84ib1025A9mz/gLmDgM8vyXYMbXeUn3ig/kkn4waH+ejMFo0iVBDvnTAcUZCS7uGywgEkU/LPh+k3OcX4msK9IykJxOH8leyO73guk/nc6OIde0EemUoZYdOk5848ToOFsgC/LyLWeWpBuJIxB42TMOkF4ePljwZw0tCfIeEiyonfZehr03nkxsCLGHFw7uez9s1hiCAs85HalAWvC6WmLv1BSGkDmzkxy550k27x/MKbB99plzYOvYvEFUN+KpccXtg3l8Qt9F+mqldyJp6Z0HkPT2+HDZYIJuLCR7UCTym0mKErL9iuHPh0voKRYCO7k/A37K4B+Xe3AMDOy9gykfZ+AeXowRpevWOFtwhaLM18aI7GQ4/5yMJ5WmfCAg0U0lm2iDORmOqcJnetgJfp2zayksJRYFJXFE8F9ZjfbCLBJag33YX4i8eC7kjQLN8/KO/WRgGVKC3jWWqP3WwZ412IZMMVLgBsojIBEQyfZWS5nOu9cnJoOkDgguZJgyzaVgXSWZoTOY4BMk2CEXvlPulNsHxuf6otel4/s7J9cY6xVl0ukEZLr0opJgRlCTBqNrrfbmK8GeEbgYDJa0Jz54OU1g5wW7lZJr6JAMwmfOsDoI2QIDyKgx4gl/XDs+06NdwV3dlLn3N4zjsqc+osN02X2GkL14+QrOb8fkIMwpbRaHLTNcLQlABahDyDrZTbbKftpr9logy+6yv+YnkB38+kJ1EBYDBmH4KVUXeRhSYMJPCSoxzjuCGdR8YYOQg60Yf9E+j8pQgHR4Vkr8k+Aa+XhAoCMwkeOVYIocGKUUddg8Y8tmOKKlYNF7kgyC0olGdgTXWoR1iub2BoOz6jUMDyPEYdrYJHNm9KVoHkIap/wXBgxPQgvuZ09kTI5zaCJJUSKHtpFkHzg0xLD2YbvrMSdO+U3BIlQZnmfGMa+WOAhRns4cUbtAowYRxpVNir48O/LC+DrH74yrCJTsi0JXS7JgmYLxGDGG1Vu+INNUakZRtm3tqV+iuodPbsp4yNrBnCJ3UT49oey1NkZutKnKsslYpZyHDkSQUKXUV7JM1rsoi9Bk0noqsQPqh+Ae9cOVkr2hQ3Qmaxk1m2EPrHdvcNVB9+E4OTdBYUvslP2cBYfbezAb/Rsaia90jYtyfjpNWZpAlJ5npgbaZK8FJ9PQoYOspToIHpvnVhSrGGFeVN/U8zYow5+kiEUAPAQPo6UslhEUqWYfOUYwzKtNHxlk40vTGeo0zjwiJ8MRwICrYomc1Cu6YKRs/+OQOL2kjF58Nx8wUZLIn8CKPBmDacTJGVtqB17aTLIv8EmZjExn7hdoVrCYPXEuhyAKXksSHXmunA8j1BLoRTQlss5mCOk2UjuC0WZUvpp5pULmtTJVGTEn1BZiyT/ZlbUKZEA5LYGCGDxBlQyiEkPLiYCaWhhJ0MMAdGUJGWzR3Zrt59j0SEYsg5b91/2wZ3SRvtG9aY0kHctZ9pM1symctJpgQjAyOs9H5r2zGQTMBD6uQV2eAtrmhLv2qg4DsqJ7fXs+a95b6Xjab3OWidEJcj6teWjm+qqDUFgWsfdlEG4IOkoDnVCNm2SE46FdueOufgOpzDKWaVQZedhhLaakceaYOKikvIahUKCpJOVWoKF8IIVKlFn0yTlQpKSMyETZlK5Spuy74seu1Leem5GZ9K4W7ZshN+wr40RY7MNKX6CR/i8FywD6iPFlZNrsSJeNvRzaRbOSDRERiYx3dlwE9mFwtW4zrmTDX9AlYyl6B6kkPLSS+zqXUbUfrfMnP20XIBkTzYPXZD9dZB5aMmVce5oTGEvzrjCMU9T2wEOMvGMt3KZmIYrsyyAyGKLTgojq2OwVx9Tq20r3yfmcpje52Q9wc9Kr44OMqIWKZBNqMNbXRanzNRvrOo/DE5jsD+91ZaAAgpQ1gdzJORvX5WQHPcfqIKTbUu8+vPIRcQwWCcvX6VCJokx7e0/qSzAU1xjsPtKlBHfL4nM9L2sk7RhptGvtI69LAdE5JXJOkhmIZkAUIlF/k5zHAbXC7HjWM9r6Q9d6jJ9til0Z2ZRtWNEh0BWjQxAYmCSF8Kx5+I3hAXXAu2tL8JCbaXG8enAb2dZrQYuEUlRYiQFnpBXv15pkh5SAgakkYqcUakUCGV0vnBSYRmZqLjJBsElXND9rntbKmMqaGV8ZNIgHXg9W9L2SjHMpeGewaLklEOgfgkXWovUqj/lWsHXKBCoJUjyTrgDIeXlc5mivWkqdtw9gpEr2iqODZTPu81BCPW2WIvOHALQGXFAlK6LrXcTpcX4gKH/7yLqsXaZU65J955MbQcXQmkXXOKDP7Mg0z2mIyaw9FfSyhbMoURSZQxbkMzge0mCgS04Nil1Y1vZfHUR26PR1MWXnQFdtYG8M7CEzJAwCJZEeJu4niqRIDJkoqo8yapEa6mpIMk8KomjdjgFrFgm6X91MBUAPSrcJAaGASSlgojrGhdEU5cOrZToyHtmUtSZl1xPltZm+W4s56VjaFcxocKIZ2cG+YeZJO+IDRZ1HaMpw+7IfRokC4rrGep7P0nHZg7nX7K89r+u7upEMbjUOglMVVKxHBqH+RCmqrJg/x8ARZAFT8CISBnFqb/ZsRd5tm/KQvRAcMPieNbnKqNu4xte1R46SdChx1LI3zx1UwzDSFRAOWpqMCT/2PCulrHbVCNT6OI10+tarUJ4ZcRYnyXNXsXOaTmddT72PzGpnFzymTluj+w+BMFxLT2QGeyeL4wjpJ8NdO33oOpkRkPTVQjkOdZxaz2i2bd9XdSF7PrSTiB5zENUudo077TedV+mM2FQB6GqJLVKvnUXk/1XBFS7PgDADenVIdhlClHYCqsAusJ+aB8xXZq25wnXLNoKn5XH7Cj/ZhSGyqNHgzviuaM1w8sDa4zy8LIqqSRwwOT7LOPF+eyeTW5rsiofFK8sQsjicBk5aTGAZYgY7sU2Xiogssgsq4pkJ1+WDKRRHIJKEh4qYFBdbaCgzFYVykbqIEbYJi85IzR6IBncF62NnwHIfzElKzYnVLMr5u4MpuUxLxweijMbmwOwLQYFBZyYkbfeAZXZDyFzsn/QTHKQmQXHADBz4NFI0ZWRW4yAYhz3BLewiQjR3Dh/8k4qQHUgyoFmkIUFHhjVsFGUmbU2UMCmbHhh0ypaU7dK74wcZFqfOYZG9JPtKhnZN/ta1JAyjMFshPgHZ3mBZDONL/hlsnzOCJaegK4GBLKOl1OkWFstgMesPxuFMEtqVkYtMybvPs7rBdNeQoeogso3WXOlxEhln8ASqfZRw+LTagiyAIaRvVQenDLtlDyWUWG0WB6upQfbM4EMYBEYVEmVL2AK2RqCTAQUZIlfLHISIm+eDO3ZFewy1zeYEROuMC2Vg2KTBagYetOgftEPoEOVnjERrjNMsYqwtiJMheAw258W7vy/YQpOy88OcKV2l+8UXhcquQlYqnaxGsZlTpOCiIYrGqHGWjKK1gU0InE33O8MgynFPaZmsgYI7Hw7sHQfCaY9kE5ykMbTbMoi14Ged+YBdz5sj+2d+Ht6OYBEvw0PZRaWguKHFb1mUZ2uOImlzEXFQNM43u2omtz7IH90mnuOuvhPid2vbGSy1TSIzoDb3ssf1dxAeJwv2EnVnx5pIWVTMgMwickZuq0zMumbe42ASkRqjmYVfz4jcqgUw/LUWkHg5hw5eokOec4X56MbFgznHtiaS9QeRqEArKWEFmSN94TzsZXXimUXb/7ZDyTip06J5z5hDECT57BnIxAQnAhd6nR1FCvzaJxGZZAemUTpAY9AVHTbWzCjJTtUhBG3+Gpt+if77SGahiN7VEJPXsEuCQ3MnZ9uZMtuzlxloZWOAzjj7KhBWR2a3UNpOGavMFQmMBTEHIhxtKqVwSyAYxS4ipFIoUQMPQzgUYxlwETMHwFiL/jKapzDaDUUGOZGe4ff9bE4cFEXkcKTGFiuqYXwIcBKjxcAx1HDuShwLwSVsUqtK1ijrMW9Cz+hW5YMxG1cWIr2GwVJEDoKiS68VyDITkAUwtgw24y/DEpUb21ggButwTYWBGG6GkvIyGAxl4umiQdckpu88imHP7Q94YmjLGuNDIQmI+ejggjtal9/MbxoRPHvtGfcRB2vu9h3ZE88KbGi/6j08E1EKg8Goyg4TzpMRcLC5bs9KK2gbALjHUrDGhzS+bZF22prmOWZN5JEh5XhllebBcSzDcOO7GhGdANGRsZ3B7XNjHBlzSluv95vMFtRQi7s5dzolCCJznD8H1BK5FVBw4F3U6jSEQHDC6e0KptN0vKIGrqGL1i8DoBfTCLwh8+JU6TLHQHfooHVdLZgukgUZlsywjxLqtSf2tI84MM7G2ALU7UzqbeSkhSftsedEp9iMKndsk+CYk0292ROfQbYH6lrrIAgBAwSHEvktCiXW2tYZFmV+884j24QZYcaCAmqvBZ3IdhADwIGDihhEkem0mgPj8cPJtRnB/Sm+gwoo/BDsONfFQTACHFwfwdTNFz4s+gdpgJH8tg/P7CCOUfZkvdZyqmBReVVqssihcBpdBCq0R2AMc2RkRvr/DmSH4XrotP3Oov9G7bkIV5bZV1fJeUAfBC0CjKwTbdQct8J9oCQCZ88PQYDooMAHNIUOaB0EGEekx/MOxbbXajMYCZNrK/dSXQ6C4ksrtyNJgUXzMibpN6MqGhUtqa8g3p9Cwn3h0eoJotYhJIoEkbmOczCu7GhoxA3qMiewXR/BmGWWIL0kDk/hlPPYh2k2JEMSYV968nti31JcDnIWiW6l0KKjLEjXa8B7CseD3xydXCxyF+32ObZZ81qk47JUwZ4srNa+1mKO7ATIgkxtFIFQQLeCqlpzrPcnrzJ40Om0oGaj5ryI9wF1gjMTHuRwZWUyvERk3t86CAsRYSqOiv420vOanEm2fdcMgNS7r9C2iJu/0jlRMMZMmo0ItlR7x+Q7xwjeyYfJgIqaQUe1ntF1X+k9GIADYryNy5hKLUEElGxPMKMoS5FlMCrmI5JHjsG31U/6SFbDWOhfryT9NdfErNtj4Az3RaAYNRiRH5IeS5vBT+SjJbJBhvsKmo6DXTIi6hhi2U8ni28gDzAcQ1TrKbOuXeTjHDtYcS11Wg2EAxUYZGfTeu8BWdgTvHPyXPvuJ8Mgu4ydAGGkg+4ACNceeWWBrrMPsgmwk0BNo8B/uhyEdj3p+kuCK96/3pushqBIp1uIkxLBcVRqGOoeHERfxLDec1vv8UV38FS4PONsL3Sp6DD4ezCs1rPIApP5gA5AL13YfJ1vdrLo5ABP6arRKaXZwDPmdDgFPfGePcERmTOOHFASA8OBeSa1XsMBqT2ov1wxuMXgzRmm3P7bFOMqrnFWu4Ips6KizEldBAZu/SAkjQHZ9FCmtK+mJTqetQf1miGfFTZlallPGXLNIp+TOm2vFSLnJVkfWeK0ZzU4zHuvvN491QO1tYNP+4iMkguyKNgcqXsH2H4lBVk/R6/pRSZP39jbfbamy0H4naHSAqX6nVXx9d5oXowTEMUlgRlMfLVvu673nNdqfMaRk4DB61phrHX9gNdgqQS9q9AGw+dYRExtFMeoci5qFcbifGUb0vPdwZwtZywzkCHAH3V+KJTrNGFU2qI0geIIwFsEKIufustEqe7XklTf86tFzjyHg+N4QJvWDcYicxnxm4M6ioK6LKilD8cPcNTWYIDQwHaHCc5id8flvT9tNwdhoSAZXV/2GLwwDzHWntMrg2dlsPPcp17rmZBPEW6XnDmXHOn2A31p6hhpzh3ocxCGlUKqB2gh1Kkx0mLugFZEEAtjXUn/808GTpmD0kXFeSAGX2SY8FM7jPcvQEHSdwa8zRrq+RyEzECdoJLrFU613yHQjsxxR7A6DGLMwI6yJ/fJekyOwwmqmekqqsTBcpoMobqO929qm21z+r6vUmxtnmg7OgjrSp2WIXY53K59WYTfdMGRAXKez6hrXrXTbxHmveXnMM1BbPnFjQsYvANgLYZcpC5CExjAexWy543EGGlZqO6TSpyXVl1RoRqLc0A6tVVT7YGzUpOo/f05DihU11MLMYmW4angtfa+QzZluzqIIWsfzxl34MAdGB3EKAy5A4w0+Ei3VL4oBfYa2unUt5M6ldQ7OJ5KoC2dTZwR4+89ErWWSqBOxj9fQqvHwAl7J8e01rakjiPqND5IBMQ2jWDqCZeMDmLGZo2H948dGB3E/vGcN3OVHI93IvRZyxLgw4ri6gPgIxCQbiPZxBACh+mYyo4WNYb2nQ7F7c8FK3RzMF56nOUgFOryX7iMDmLIkxjP2fY7MDqIbf+IF2aBup28cAdymicr4VBkForpWatoF6mFV21D14vGh6Ht2lmrUB8xR/eotYmF2cxxIuMObMQOjA5iI3Z5vMe4A+MOjDuwBXfgf3BVcWq16FcjAAAAAElFTkSuQmCC;" parent="1" vertex="1">
          <mxGeometry x="699" y="400" width="235.44" height="18" as="geometry" />
        </mxCell>
        <mxCell id="RQd_vgMUvT6Io3bDNMp--116" value="" style="group" parent="1" vertex="1" connectable="0">
          <mxGeometry x="420" y="440" width="210" height="30" as="geometry" />
        </mxCell>
        <mxCell id="RQd_vgMUvT6Io3bDNMp--108" value="&lt;font style=&quot;font-size: 15px;&quot;&gt;Impostors&lt;/font&gt;&amp;nbsp; &amp;nbsp;&amp;nbsp;" style="text;strokeColor=none;align=center;fillColor=none;html=1;verticalAlign=middle;whiteSpace=wrap;rounded=0;" parent="RQd_vgMUvT6Io3bDNMp--116" vertex="1">
          <mxGeometry width="100" height="30" as="geometry" />
        </mxCell>
        <mxCell id="RQd_vgMUvT6Io3bDNMp--111" value="$$\left\{y_i \right\}^m_{i=1} $$" style="text;html=1;align=center;verticalAlign=middle;resizable=0;points=[];autosize=1;strokeColor=none;fillColor=none;" parent="RQd_vgMUvT6Io3bDNMp--116" vertex="1">
          <mxGeometry x="30" width="180" height="30" as="geometry" />
        </mxCell>
        <mxCell id="RQd_vgMUvT6Io3bDNMp--117" value="" style="group" parent="1" vertex="1" connectable="0">
          <mxGeometry x="60" y="474" width="210" height="30" as="geometry" />
        </mxCell>
        <mxCell id="RQd_vgMUvT6Io3bDNMp--118" value="&lt;font style=&quot;font-size: 15px;&quot;&gt;Impostors&lt;/font&gt;&amp;nbsp; &amp;nbsp;&amp;nbsp;" style="text;strokeColor=none;align=center;fillColor=none;html=1;verticalAlign=middle;whiteSpace=wrap;rounded=0;" parent="RQd_vgMUvT6Io3bDNMp--117" vertex="1">
          <mxGeometry width="100" height="30" as="geometry" />
        </mxCell>
        <mxCell id="RQd_vgMUvT6Io3bDNMp--119" value="$$\left\{y_i \right\}^m_{i=1} $$" style="text;html=1;align=center;verticalAlign=middle;resizable=0;points=[];autosize=1;strokeColor=none;fillColor=none;" parent="RQd_vgMUvT6Io3bDNMp--117" vertex="1">
          <mxGeometry x="30" width="180" height="30" as="geometry" />
        </mxCell>
        <mxCell id="-NZNnceTrdKnHDUhKuml-1" value="$$k_a$$" style="text;whiteSpace=wrap;html=1;" vertex="1" parent="1">
          <mxGeometry x="197" y="330" width="80" height="40" as="geometry" />
        </mxCell>
        <mxCell id="-NZNnceTrdKnHDUhKuml-2" value="$$k_a$$" style="text;whiteSpace=wrap;html=1;" vertex="1" parent="1">
          <mxGeometry x="20" y="443" width="80" height="40" as="geometry" />
        </mxCell>
        <mxCell id="-NZNnceTrdKnHDUhKuml-3" value="$$k_a$$" style="text;whiteSpace=wrap;html=1;" vertex="1" parent="1">
          <mxGeometry x="340" y="430" width="80" height="40" as="geometry" />
        </mxCell>
        <mxCell id="-NZNnceTrdKnHDUhKuml-4" value="$$d$$" style="text;html=1;align=center;verticalAlign=middle;resizable=0;points=[];autosize=1;strokeColor=none;fillColor=none;" vertex="1" parent="1">
          <mxGeometry x="-10" y="340" width="60" height="30" as="geometry" />
        </mxCell>
        <mxCell id="-NZNnceTrdKnHDUhKuml-5" value="$$d$$" style="text;html=1;align=center;verticalAlign=middle;resizable=0;points=[];autosize=1;strokeColor=none;fillColor=none;" vertex="1" parent="1">
          <mxGeometry x="-22.700000000000003" y="453" width="60" height="30" as="geometry" />
        </mxCell>
        <mxCell id="-NZNnceTrdKnHDUhKuml-6" value="$$d$$" style="text;html=1;align=center;verticalAlign=middle;resizable=0;points=[];autosize=1;strokeColor=none;fillColor=none;" vertex="1" parent="1">
          <mxGeometry x="280" y="440" width="60" height="30" as="geometry" />
        </mxCell>
      </root>
    </mxGraphModel>
  </diagram>
</mxfile>
